<svg width="32" height="32" viewBox="0 0 50 49" fill="none" xmlns="http://www.w3.org/2000/svg">
<path d="M0 2.13336C0 1.70901 0.174497 1.30204 0.485104 1.00198C0.795711 0.701927 1.21699 0.533356 1.65625 0.533356H6.625C6.99445 0.533454 7.35325 0.652878 7.64436 0.872635C7.93546 1.09239 8.14216 1.39986 8.23156 1.74616L9.57312 6.93336H48.0312C48.2744 6.93357 48.5146 6.98552 48.7347 7.08552C48.9547 7.18551 49.1493 7.3311 49.3045 7.51193C49.4598 7.69276 49.5719 7.9044 49.633 8.13181C49.694 8.35923 49.7024 8.59683 49.6577 8.82776L44.6889 34.4278C44.6179 34.7944 44.4165 35.1255 44.1195 35.3639C43.8225 35.6023 43.4486 35.733 43.0625 35.7334H13.25C12.8639 35.733 12.49 35.6023 12.193 35.3639C11.896 35.1255 11.6946 34.7944 11.6236 34.4278L6.65812 8.87576L5.33312 3.73336H1.65625C1.21699 3.73336 0.795711 3.56478 0.485104 3.26473C0.174497 2.96467 0 2.5577 0 2.13336ZM10.2754 10.1334L14.6247 32.5334H41.6878L46.0371 10.1334H10.2754ZM16.5625 35.7334C14.8054 35.7334 13.1203 36.4076 11.8779 37.6079C10.6355 38.8081 9.9375 40.436 9.9375 42.1334C9.9375 43.8307 10.6355 45.4586 11.8779 46.6588C13.1203 47.8591 14.8054 48.5334 16.5625 48.5334C18.3196 48.5334 20.0047 47.8591 21.2471 46.6588C22.4895 45.4586 23.1875 43.8307 23.1875 42.1334C23.1875 40.436 22.4895 38.8081 21.2471 37.6079C20.0047 36.4076 18.3196 35.7334 16.5625 35.7334ZM39.75 35.7334C37.9929 35.7334 36.3078 36.4076 35.0654 37.6079C33.823 38.8081 33.125 40.436 33.125 42.1334C33.125 43.8307 33.823 45.4586 35.0654 46.6588C36.3078 47.8591 37.9929 48.5334 39.75 48.5334C41.5071 48.5334 43.1921 47.8591 44.4346 46.6588C45.677 45.4586 46.375 43.8307 46.375 42.1334C46.375 40.436 45.677 38.8081 44.4346 37.6079C43.1921 36.4076 41.5071 35.7334 39.75 35.7334ZM16.5625 38.9334C17.441 38.9334 18.2836 39.2705 18.9048 39.8706C19.526 40.4707 19.875 41.2847 19.875 42.1334C19.875 42.982 19.526 43.796 18.9048 44.3961C18.2836 44.9962 17.441 45.3334 16.5625 45.3334C15.684 45.3334 14.8414 44.9962 14.2202 44.3961C13.599 43.796 13.25 42.982 13.25 42.1334C13.25 41.2847 13.599 40.4707 14.2202 39.8706C14.8414 39.2705 15.684 38.9334 16.5625 38.9334ZM39.75 38.9334C40.6285 38.9334 41.4711 39.2705 42.0923 39.8706C42.7135 40.4707 43.0625 41.2847 43.0625 42.1334C43.0625 42.982 42.7135 43.796 42.0923 44.3961C41.4711 44.9962 40.6285 45.3334 39.75 45.3334C38.8715 45.3334 38.0289 44.9962 37.4077 44.3961C36.7865 43.796 36.4375 42.982 36.4375 42.1334C36.4375 41.2847 36.7865 40.4707 37.4077 39.8706C38.0289 39.2705 38.8715 38.9334 39.75 38.9334V38.9334Z" fill="white"/>
</svg>
